<?xml version="1.0" encoding="UTF-8"?>
<svg version="1.1" xmlns="http://www.w3.org/2000/svg" width="100" height="100">
<path d="M0 0 C0.92296875 0.0825 1.8459375 0.165 2.796875 0.25 C4.109375 2.1875 4.109375 2.1875 4.796875 5.25 C2.07755415 11.76147639 -2.38129799 17.68325919 -6.328125 23.5 C-7.55709615 25.32738129 -8.78489027 27.15555453 -10.01171875 28.984375 C-10.6754248 29.97373047 -11.33913086 30.96308594 -12.02294922 31.98242188 C-15.75010834 37.56856943 -19.43343984 43.18338493 -23.11346436 48.80065918 C-23.96020184 50.09304158 -24.80740535 51.38511877 -25.65509033 52.67687988 C-26.85314951 54.50264576 -28.04984583 56.329297 -29.24609375 58.15625 C-30.28286255 59.73889648 -30.28286255 59.73889648 -31.34057617 61.35351562 C-32.53861117 63.21660217 -33.67820911 65.11928999 -34.74047852 67.06298828 C-36.203125 69.25 -36.203125 69.25 -39.5625 70.3359375 C-44.17807704 70.22698611 -45.26503188 69.13154911 -48.453125 65.875 C-49.3915625 64.95460938 -50.33 64.03421875 -51.296875 63.0859375 C-51.77511719 62.61124023 -52.25335938 62.13654297 -52.74609375 61.64746094 C-55.03271713 59.45432551 -57.48627862 57.48567579 -59.953125 55.5 C-60.85289063 54.7678125 -61.75265625 54.035625 -62.6796875 53.28125 C-64.24793681 52.01888214 -65.82463541 50.76684703 -67.4140625 49.53125 C-70.09861149 47.38361081 -71.98552702 45.8003949 -73.265625 42.5625 C-73.203125 40.25 -73.203125 40.25 -71.203125 37.25 C-69 36.71875 -69 36.71875 -66.203125 37.25 C-63.77220277 39.01153785 -61.65225805 40.73580429 -59.453125 42.75 C-58.83912842 43.29374268 -58.22513184 43.83748535 -57.5925293 44.39770508 C-55.78450492 46.00280971 -53.9916308 47.62320174 -52.203125 49.25 C-50.47551446 50.81422039 -48.74663027 52.37703713 -47.015625 53.9375 C-46.34144531 54.56011719 -45.66726562 55.18273437 -44.97265625 55.82421875 C-43.15203066 57.46090811 -43.15203066 57.46090811 -40.203125 58.25 C-39.95111328 57.54528564 -39.69910156 56.84057129 -39.43945312 56.11450195 C-38.06536796 52.93082477 -36.36753393 50.28827673 -34.421875 47.41796875 C-34.05201981 46.86872742 -33.68216461 46.31948608 -33.30110168 45.75360107 C-32.51267931 44.58329096 -31.72228831 43.41430504 -30.93008423 42.24655151 C-28.86900392 39.20765636 -26.82270426 36.15886476 -24.77734375 33.109375 C-24.37613815 32.51160751 -23.97493256 31.91384003 -23.56156921 31.29795837 C-20.45125894 26.65103565 -17.44639298 21.94910662 -14.515625 17.1875 C-13.75691608 15.96719561 -12.99782403 14.7471293 -12.23828125 13.52734375 C-10.90420168 11.37898913 -9.57836272 9.22549043 -8.26171875 7.06640625 C-7.36646484 5.67228516 -7.36646484 5.67228516 -6.453125 4.25 C-5.96328125 3.46625 -5.4734375 2.6825 -4.96875 1.875 C-3.203125 0.25 -3.203125 0.25 0 0 Z " fill="#000000" transform="translate(84.203125,16.75)"/>
</svg>
