<?xml version="1.0" encoding="UTF-8"?>
<svg version="1.1" xmlns="http://www.w3.org/2000/svg" width="100" height="100">
<path d="M0 0 C2 2 2 2 2.22705078 4.98095703 C2.21657715 6.22731934 2.20610352 7.47368164 2.1953125 8.7578125 C2.1924826 9.42086395 2.18965271 10.08391541 2.18673706 10.76705933 C2.17553435 12.88655583 2.15043051 15.00563104 2.125 17.125 C2.11497028 18.56119182 2.10584441 19.99739025 2.09765625 21.43359375 C2.075595 24.95586628 2.04106494 28.47789203 2 32 C3.33961792 31.97643433 3.33961792 31.97643433 4.70629883 31.95239258 C8.02178756 31.90124561 11.33685675 31.86364188 14.65258789 31.83520508 C16.08722552 31.82012411 17.52181708 31.7996562 18.95629883 31.77368164 C21.01915859 31.73726563 23.08140858 31.72026757 25.14453125 31.70703125 C27.00621948 31.68346558 27.00621948 31.68346558 28.90551758 31.65942383 C32 32 32 32 33.8737793 33.36987305 C35.44683047 35.64675635 35.86807278 37.22952831 36 40 C34.8584081 42.2831838 33.80987317 44.19012683 32 46 C29.78144736 46.08783542 27.56011504 46.10694609 25.33984375 46.09765625 C24.34314415 46.09553383 24.34314415 46.09553383 23.3263092 46.09336853 C21.19666101 46.08775518 19.06711661 46.07520054 16.9375 46.0625 C15.49674631 46.05748671 14.05599097 46.05292351 12.61523438 46.04882812 C9.07678898 46.03778145 5.53840461 46.02050792 2 46 C2.01571045 46.89307861 2.0314209 47.78615723 2.04760742 48.70629883 C2.09875439 52.02178756 2.13635812 55.33685675 2.16479492 58.65258789 C2.17987589 60.08722552 2.2003438 61.52181708 2.22631836 62.95629883 C2.26273437 65.01915859 2.27973243 67.08140858 2.29296875 69.14453125 C2.3086792 70.38565674 2.32438965 71.62678223 2.34057617 72.90551758 C2 76 2 76 0.63012695 77.8737793 C-1.64675635 79.44683047 -3.22952831 79.86807278 -6 80 C-8.2831838 78.8584081 -10.19012683 77.80987317 -12 76 C-12.08783542 73.78144736 -12.10694609 71.56011504 -12.09765625 69.33984375 C-12.0962413 68.67537735 -12.09482635 68.01091095 -12.09336853 67.3263092 C-12.08775518 65.19666101 -12.07520054 63.06711661 -12.0625 60.9375 C-12.05748671 59.49674631 -12.05292351 58.05599097 -12.04882812 56.61523438 C-12.03778145 53.07678898 -12.02050792 49.53840461 -12 46 C-12.89307861 46.01571045 -13.78615723 46.0314209 -14.70629883 46.04760742 C-18.02178756 46.09875439 -21.33685675 46.13635812 -24.65258789 46.16479492 C-26.08722552 46.17987589 -27.52181708 46.2003438 -28.95629883 46.22631836 C-31.01915859 46.26273437 -33.08140858 46.27973243 -35.14453125 46.29296875 C-36.38565674 46.3086792 -37.62678223 46.32438965 -38.90551758 46.34057617 C-42 46 -42 46 -43.8737793 44.63012695 C-45.44683047 42.35324365 -45.86807278 40.77047169 -46 38 C-44.8584081 35.7168162 -43.80987317 33.80987317 -42 32 C-39.78144736 31.91216458 -37.56011504 31.89305391 -35.33984375 31.90234375 C-34.34314415 31.90446617 -34.34314415 31.90446617 -33.3263092 31.90663147 C-31.19666101 31.91224482 -29.06711661 31.92479946 -26.9375 31.9375 C-25.49674631 31.94251329 -24.05599097 31.94707649 -22.61523438 31.95117188 C-19.07678898 31.96221855 -15.53840461 31.97949208 -12 32 C-12.01571045 31.10692139 -12.0314209 30.21384277 -12.04760742 29.29370117 C-12.09875439 25.97821244 -12.13635812 22.66314325 -12.16479492 19.34741211 C-12.17987589 17.91277448 -12.2003438 16.47818292 -12.22631836 15.04370117 C-12.26273437 12.98084141 -12.27973243 10.91859142 -12.29296875 8.85546875 C-12.3086792 7.61434326 -12.32438965 6.37321777 -12.34057617 5.09448242 C-12 2 -12 2 -10.66918945 0.1340332 C-6.62777432 -2.61167007 -4.29567918 -1.73655116 0 0 Z " fill="#000000" transform="translate(55,11)"/>
</svg>
