<?xml version="1.0" encoding="UTF-8"?>
<svg xmlns="http://www.w3.org/2000/svg" width="14" height="24" viewBox="0 0 14 24" fill="none">
<path d="M12.8706 0.0554245C13.1932 0.377935 13.1932 0.377935 13.3456 1.06225C13.1045 2.53025 12.1223 3.25992 11.0767 4.26444C10.8619 4.47691 10.6472 4.68938 10.4259 4.90829C9.73947 5.58571 9.04763 6.25731 8.3555 6.92893C7.88901 7.38733 7.42288 7.84611 6.95712 8.30526C5.81485 9.42976 4.66771 10.5491 3.51785 11.6658C3.92916 12.5689 4.35161 13.2227 5.05993 13.9159C5.32949 14.1822 5.32949 14.1822 5.60449 14.454C5.89427 14.7357 5.89427 14.7357 6.1899 15.0232C6.38866 15.2195 6.58742 15.4158 6.7922 15.6181C7.42599 16.244 8.06182 16.8678 8.69817 17.4911C9.53694 18.3128 10.3736 19.1365 11.209 19.9616C11.4028 20.1501 11.5966 20.3386 11.7964 20.5328C13.1568 21.877 13.1568 21.877 13.5157 22.9537C13.3028 23.2729 13.09 23.5922 12.8706 23.9212C11.9299 24.0691 11.4485 24.047 10.6479 23.5179C10.4567 23.329 10.2655 23.14 10.0684 22.9453C9.73933 22.6254 9.73933 22.6254 9.40356 22.299C9.17203 22.0652 8.9405 21.8314 8.70195 21.5905C8.46084 21.3517 8.21974 21.1129 7.97133 20.8669C7.46272 20.3608 6.95617 19.8526 6.45154 19.3426C5.67805 18.5629 4.89559 17.7931 4.11185 17.0237C3.6189 16.5309 3.12651 16.0375 2.63473 15.5435C2.39993 15.3136 2.16514 15.0837 1.92323 14.8469C1.0143 13.9165 0.379994 13.2442 0 11.9883C0.465858 10.4486 1.50283 9.54127 2.63473 8.43313C2.87429 8.19248 3.11385 7.95183 3.36067 7.70389C3.86779 7.19687 4.37733 6.69225 4.88907 6.18989C5.67238 5.41938 6.44578 4.63986 7.21853 3.85878C7.71244 3.36731 8.20689 2.87638 8.70195 2.38607C8.93348 2.15228 9.16501 1.9185 9.40356 1.67763C9.62297 1.46434 9.84238 1.25105 10.0684 1.0313C10.2597 0.84234 10.4509 0.653378 10.6479 0.45869C11.4345 -0.0611384 11.946 -0.0443472 12.8706 0.0554245Z" fill="#FFFDFA"/>
</svg>