<?xml version="1.0" encoding="UTF-8"?>
<svg version="1.1" xmlns="http://www.w3.org/2000/svg" width="100" height="100">
<path d="M0 0 C1 1 1 1 1.47265625 3.12182617 C0.72515544 7.67362732 -2.32033053 9.93611422 -5.5625 13.05078125 C-6.22838135 13.70958786 -6.8942627 14.36839447 -7.58032227 15.04716492 C-9.70876742 17.14763293 -11.85393679 19.23005052 -14 21.3125 C-15.44644883 22.73387058 -16.89177591 24.15638368 -18.3359375 25.58007812 C-21.87774712 29.06677391 -25.43465539 32.53738031 -29 36 C-27.72466236 38.80019325 -26.41476602 40.82749489 -24.21850586 42.97680664 C-23.38270241 43.80270042 -23.38270241 43.80270042 -22.53001404 44.64527893 C-21.63150475 45.5188932 -21.63150475 45.5188932 -20.71484375 46.41015625 C-20.09855606 47.0188707 -19.48226837 47.62758514 -18.8473053 48.25474548 C-16.882109 50.1955466 -14.91062668 52.12976388 -12.9375 54.0625 C-10.3367372 56.61016666 -7.74258336 59.16429626 -5.15234375 61.72265625 C-4.55131332 62.30709 -3.9502829 62.89152374 -3.33103943 63.4936676 C0.88720453 67.66161359 0.88720453 67.66161359 2 71 C1.34 71.99 0.68 72.98 0 74 C-2.91684144 74.45878221 -4.40947271 74.39026226 -6.89204407 72.74960327 C-7.48494736 72.16369415 -8.07785065 71.57778503 -8.6887207 70.97412109 C-9.70921257 69.98211197 -9.70921257 69.98211197 -10.75032043 68.97006226 C-11.4682225 68.24517609 -12.18612457 67.52028992 -12.92578125 66.7734375 C-13.67337204 66.03300201 -14.42096283 65.29256653 -15.19120789 64.5296936 C-16.76823447 62.96045046 -18.33888038 61.38477274 -19.90356445 59.80322266 C-22.30191159 57.38567318 -24.72808355 54.99884083 -27.15820312 52.61328125 C-28.68666949 51.08510527 -30.21342166 49.55521244 -31.73828125 48.0234375 C-32.46630447 47.31069672 -33.1943277 46.59795593 -33.94441223 45.86361694 C-36.76270617 42.97880495 -38.72947755 40.89407744 -39.90771484 37 C-38.46324102 32.22601013 -35.24793872 29.41254632 -31.73828125 25.9765625 C-30.99547409 25.23038666 -30.25266693 24.48421082 -29.48735046 23.71542358 C-27.91493568 22.14330754 -26.33503685 20.57864649 -24.74829102 19.02099609 C-22.31951199 16.63189743 -19.92143844 14.21484399 -17.52539062 11.79296875 C-15.99393675 10.26907339 -14.46078878 8.74687824 -12.92578125 7.2265625 C-12.20787918 6.50167633 -11.48997711 5.77679016 -10.75032043 5.02993774 C-10.06999252 4.36859833 -9.38966461 3.70725891 -8.6887207 3.02587891 C-8.09581741 2.43996979 -7.50291412 1.85406067 -6.89204407 1.25039673 C-4.45310996 -0.36142367 -2.86710092 -0.30935956 0 0 Z " fill="#000000" transform="translate(69,13)"/>
</svg>
