<?xml version="1.0" encoding="UTF-8"?>
<svg version="1.1" xmlns="http://www.w3.org/2000/svg" width="100" height="100">
<path d="M0 0 C0.95390625 -0.03738281 1.9078125 -0.07476563 2.890625 -0.11328125 C6.63980855 0.44499881 8.13969768 1.58172219 10.75 4.3125 C12.11328125 7.44140625 12.11328125 7.44140625 13.0625 10.875 C13.55169922 12.57849609 13.55169922 12.57849609 14.05078125 14.31640625 C14.75 17.3125 14.75 17.3125 14.75 20.3125 C23.99 20.3125 33.23 20.3125 42.75 20.3125 C42.67094256 14.47857311 42.67094256 14.47857311 42.56982422 8.64501953 C42.5648291 7.91911621 42.55983398 7.19321289 42.5546875 6.4453125 C42.53897705 5.32987061 42.53897705 5.32987061 42.52294922 4.19189453 C42.75 2.3125 42.75 2.3125 44.75 0.3125 C47.225 0.8075 47.225 0.8075 49.75 1.3125 C49.75 7.5825 49.75 13.8525 49.75 20.3125 C52.03679688 20.28929688 54.32359375 20.26609375 56.6796875 20.2421875 C58.89045659 20.2265974 61.1012196 20.21444903 63.31201172 20.20263672 C64.85045098 20.19256882 66.38887107 20.17891354 67.92724609 20.16162109 C70.13644133 20.13740683 72.34538395 20.12602509 74.5546875 20.1171875 C75.24432587 20.10686493 75.93396423 20.09654236 76.64450073 20.08590698 C78.34800906 20.08550522 80.05085943 20.19058974 81.75 20.3125 C82.74 21.3025 82.74 21.3025 83.75 22.3125 C83.43932214 29.39768122 81.38646172 36.21683086 79.53125 43.03149414 C78.99942754 45.0021212 78.49191362 46.97807804 77.984375 48.95507812 C77.6440625 50.21126953 77.30375 51.46746094 76.953125 52.76171875 C76.65051758 53.89955811 76.34791016 55.03739746 76.03613281 56.2097168 C74.43320303 60.07676969 73.18853372 61.87998556 69.75 64.3125 C66.28535561 65.02264345 62.90163913 64.98987398 59.375 64.94140625 C58.37291504 64.94381821 57.37083008 64.94623016 56.33837891 64.94871521 C54.22359248 64.94773744 52.10878025 64.93436062 49.99414062 64.90942383 C46.76083248 64.87511494 43.53025801 64.88876937 40.296875 64.90820312 C38.23957172 64.90130446 36.18227549 64.8916319 34.125 64.87890625 C32.67794678 64.88634605 32.67794678 64.88634605 31.20166016 64.89393616 C26.9802282 64.82002067 24.41213115 64.69794105 20.71020508 62.54296875 C18.75812988 60.32175078 17.84466667 58.86727055 17.01171875 56.05859375 C16.75269775 55.21659424 16.49367676 54.37459473 16.22680664 53.50708008 C15.83609985 52.14232544 15.83609985 52.14232544 15.4375 50.75 C15.15189209 49.80213623 14.86628418 48.85427246 14.57202148 47.87768555 C13.95213948 45.81169001 13.34026034 43.74328065 12.73535156 41.67285156 C11.68634667 38.09542259 10.60711629 34.52800789 9.5234375 30.9609375 C8.78540227 28.51594353 8.04840582 26.07063573 7.3125 23.625 C6.95824951 22.44929443 6.60399902 21.27358887 6.23901367 20.06225586 C5.91392822 18.96534424 5.58884277 17.86843262 5.25390625 16.73828125 C4.81800171 15.27515503 4.81800171 15.27515503 4.37329102 13.7824707 C3.75 11.3125 3.75 11.3125 3.75 8.3125 C2.81027344 8.34730469 2.81027344 8.34730469 1.8515625 8.3828125 C0.62566406 8.40988281 0.62566406 8.40988281 -0.625 8.4375 C-1.43710938 8.46070313 -2.24921875 8.48390625 -3.0859375 8.5078125 C-5.25 8.3125 -5.25 8.3125 -7.25 6.3125 C-6.54763597 0.55311499 -5.64030424 0.14326976 0 0 Z M43.75 21.3125 C43.75 28.5725 43.75 35.8325 43.75 43.3125 C41.11 41.0025 38.47 38.6925 35.75 36.3125 C34.1 35.9825 32.45 35.6525 30.75 35.3125 C31.03938349 40.79011602 34.31143363 43.53928993 38 47.1875 C38.57363281 47.79335938 39.14726563 48.39921875 39.73828125 49.0234375 C42.96710042 52.36100519 42.96710042 52.36100519 47.28125 53.55859375 C50.81397654 51.77546121 53.27151593 49.33213971 56 46.5 C56.54140625 45.96568359 57.0828125 45.43136719 57.640625 44.88085938 C60.37352941 42.10354527 62.03115869 40.13790979 62.75 36.3125 C60.61920862 35.18039525 60.61920862 35.18039525 57.75 35.3125 C55.44 37.6225 53.13 39.9325 50.75 42.3125 C50.42 35.3825 50.09 28.4525 49.75 21.3125 C47.77 21.3125 45.79 21.3125 43.75 21.3125 Z " fill="#000000" transform="translate(10.25,5.6875)"/>
<path d="M0 0 C2 2 2 2 2.3125 5.9375 C2.22787031 8.39176089 2.10592691 9.78814617 1 12 C-2.26489161 13.6324458 -5.4381178 13.65165412 -9 13 C-11.0625 11.4375 -11.0625 11.4375 -12 9 C-11.93439072 5.260271 -11.76345433 2.9396361 -9.375 0 C-5.95223815 -1.44116288 -3.55394628 -0.85557966 0 0 Z " fill="#000000" transform="translate(78,77)"/>
<path d="M0 0 C4.36689189 1.42398649 4.36689189 1.42398649 5.875 3.9375 C6.23748449 7.32068857 6.45933618 9.80534865 4.875 12.875 C1.63478228 14.59636567 -1.54457756 14.46710415 -5.125 13.9375 C-7.125 12.875 -7.125 12.875 -8.125 10.9375 C-8.625 7.5 -8.625 7.5 -8.125 3.9375 C-5.45043116 0.79094842 -4.15592269 -0.08311845 0 0 Z " fill="#000000" transform="translate(41.125,76.0625)"/>
</svg>
