<?xml version="1.0" encoding="UTF-8"?>
<svg version="1.1" xmlns="http://www.w3.org/2000/svg" width="100" height="100">
<path d="M0 0 C4.86919543 3.00697002 8.06537152 6.52738149 10.234375 11.89453125 C10.78729727 14.73115904 10.85527201 17.44799337 10.796875 20.33203125 C10.78370239 21.45581177 10.78370239 21.45581177 10.77026367 22.60229492 C10.49243355 30.11354285 8.10615876 34.09638297 2.796875 39.26953125 C-2.43685218 42.5884802 -7.60701613 43.65987294 -13.765625 42.89453125 C-19.93709571 40.87284257 -24.93496697 37.85678936 -28.40234375 32.24609375 C-31.25560286 25.23149112 -31.30279813 16.03726735 -28.6640625 8.92578125 C-22.33656678 -1.2252814 -11.26104589 -4.50123727 0 0 Z " fill="#000000" transform="translate(59.765625,11.10546875)"/>
<path d="M0 0 C3.05592852 2.84272421 3.86308635 4.02204539 4.4375 8.125 C4 11 4 11 2.88110352 12.65542603 C0.09486601 14.6469711 -2.13551302 14.3813781 -5.53515625 14.38818359 C-6.52344925 14.39606903 -6.52344925 14.39606903 -7.53170776 14.40411377 C-9.7088799 14.41731412 -11.88532047 14.40857626 -14.0625 14.3984375 C-15.57560364 14.40045824 -17.08870633 14.40336968 -18.60180664 14.40713501 C-21.77271804 14.41155838 -24.94337589 14.40512711 -28.11425781 14.39111328 C-32.17995892 14.3740211 -36.24506593 14.38386225 -40.31074524 14.40183067 C-43.43514487 14.41266832 -46.55940351 14.40922232 -49.68380737 14.4014473 C-51.18293325 14.39944522 -52.6820719 14.40190485 -54.18118286 14.40888596 C-56.27608166 14.41650046 -58.37001678 14.40489789 -60.46484375 14.38818359 C-61.657146 14.38579681 -62.84944824 14.38341003 -64.07788086 14.38095093 C-67 14 -67 14 -68.88110352 12.65542603 C-70.6732697 10.00388625 -70.43631148 8.11651057 -70 5 C-64.4842495 -3.39988992 -52.59291622 -7.5403257 -43.05078125 -9.5625 C-27.86598081 -11.74008982 -12.7382346 -8.75753629 0 0 Z " fill="#000000" transform="translate(83,73)"/>
</svg>
