<?xml version="1.0" encoding="UTF-8"?>
<svg version="1.1" xmlns="http://www.w3.org/2000/svg" width="50" height="50">
<path d="M0 0 C4.62 0 9.24 0 14 0 C18.2487943 7.53195352 18.56338378 14.33373446 18.41162109 22.8137207 C18.37465223 24.95766848 18.3706057 27.0999044 18.37109375 29.24414062 C18.29588123 39.70411877 18.29588123 39.70411877 16 42 C14.15234375 42.25878906 14.15234375 42.25878906 11.9375 42.265625 C10.74253906 42.26949219 10.74253906 42.26949219 9.5234375 42.2734375 C8.69070312 42.26570313 7.85796875 42.25796875 7 42.25 C5.75089844 42.26160156 5.75089844 42.26160156 4.4765625 42.2734375 C3.67992187 42.27085938 2.88328125 42.26828125 2.0625 42.265625 C1.33160156 42.26336914 0.60070312 42.26111328 -0.15234375 42.25878906 C-2 42 -2 42 -4 40 C-4.42526705 35.71123541 -4.37158589 31.40635303 -4.37060547 27.09887695 C-4.37493519 24.96937434 -4.41111463 22.84202012 -4.44921875 20.71289062 C-4.51231097 12.8475095 -3.90549903 6.92338465 0 0 Z " fill="#000000" transform="translate(18,8)"/>
<path d="M0 0 C5.28 0 10.56 0 16 0 C16 1.98 16 3.96 16 6 C10.72 6 5.44 6 0 6 C0 4.02 0 2.04 0 0 Z " fill="#000000" transform="translate(17,1)"/>
</svg>
