<?xml version="1.0" encoding="UTF-8"?>
<svg version="1.1" xmlns="http://www.w3.org/2000/svg" width="100" height="100">
<path d="M0 0 C6.92810724 5.66574049 13.14204142 12.03033639 19.4375 18.375 C20.56161467 19.50413955 21.68596174 20.63304778 22.81054688 21.76171875 C25.54305235 24.50515188 28.27239009 27.25169985 31 30 C33.80969467 28.71977125 35.8539238 27.39285871 38.02441406 25.20263672 C38.58469299 24.64220673 39.14497192 24.08177673 39.722229 23.50436401 C40.31404968 22.90222076 40.90587036 22.30007751 41.515625 21.6796875 C42.13145447 21.06102814 42.74728394 20.44236877 43.3817749 19.80496216 C45.34260336 17.83296186 47.29635301 15.85411263 49.25 13.875 C50.58026799 12.53469836 51.910992 11.19484917 53.2421875 9.85546875 C56.5001015 6.57553411 59.75168533 3.28944058 63 0 C66.94455388 2.07608099 67.91100178 2.82200357 70 7 C60.1 16.9 50.2 26.8 40 37 C41.5988556 40.19771119 42.41598693 41.66449155 44.79736328 44.02441406 C45.35779327 44.58469299 45.91822327 45.14497192 46.49563599 45.722229 C47.39885086 46.60996002 47.39885086 46.60996002 48.3203125 47.515625 C49.24830154 48.4393692 49.24830154 48.4393692 50.19503784 49.3817749 C52.16703814 51.34260336 54.14588737 53.29635301 56.125 55.25 C57.46530164 56.58026799 58.80515083 57.910992 60.14453125 59.2421875 C63.42446589 62.5001015 66.71055942 65.75168533 70 69 C68.64062915 71.8605891 67.35479531 73.85927699 65 76 C62.19030533 74.71977125 60.1460762 73.39285871 57.97558594 71.20263672 C57.41530701 70.64220673 56.85502808 70.08177673 56.277771 69.50436401 C55.68595032 68.90222076 55.09412964 68.30007751 54.484375 67.6796875 C53.86854553 67.06102814 53.25271606 66.44236877 52.6182251 65.80496216 C50.65739664 63.83296186 48.70364699 61.85411263 46.75 59.875 C45.41973201 58.53469836 44.089008 57.19484917 42.7578125 55.85546875 C39.4998985 52.57553411 36.24831467 49.28944058 33 46 C30.19030533 47.28022875 28.1460762 48.60714129 25.97558594 50.79736328 C25.41530701 51.35779327 24.85502808 51.91822327 24.277771 52.49563599 C23.68595032 53.09777924 23.09412964 53.69992249 22.484375 54.3203125 C21.86854553 54.93897186 21.25271606 55.55763123 20.6182251 56.19503784 C18.65739664 58.16703814 16.70364699 60.14588737 14.75 62.125 C13.41973201 63.46530164 12.089008 64.80515083 10.7578125 66.14453125 C7.4998985 69.42446589 4.24831467 72.71055942 1 76 C-1.8605891 74.64062915 -3.85927699 73.35479531 -6 71 C-4.71977125 68.19030533 -3.39285871 66.1460762 -1.20263672 63.97558594 C-0.64220673 63.41530701 -0.08177673 62.85502808 0.49563599 62.277771 C1.09777924 61.68595032 1.69992249 61.09412964 2.3203125 60.484375 C2.93897186 59.86854553 3.55763123 59.25271606 4.19503784 58.6182251 C6.16703814 56.65739664 8.14588737 54.70364699 10.125 52.75 C11.46530164 51.41973201 12.80515083 50.089008 14.14453125 48.7578125 C17.42446589 45.4998985 20.71055942 42.24831467 24 39 C22.71977125 36.19030533 21.39285871 34.1460762 19.20263672 31.97558594 C18.64220673 31.41530701 18.08177673 30.85502808 17.50436401 30.277771 C16.90222076 29.68595032 16.30007751 29.09412964 15.6796875 28.484375 C15.06102814 27.86854553 14.44236877 27.25271606 13.80496216 26.6182251 C11.83296186 24.65739664 9.85411263 22.70364699 7.875 20.75 C6.53469836 19.41973201 5.19484917 18.089008 3.85546875 16.7578125 C0.57553411 13.4998985 -2.71055942 10.24831467 -6 7 C-4.02 4.69 -2.04 2.38 0 0 Z " fill="#000000" transform="translate(18,12)"/>
</svg>
