<?xml version="1.0" encoding="UTF-8"?>
<svg version="1.1" xmlns="http://www.w3.org/2000/svg" width="100" height="100">
<path d="M0 0 C2.33341339 1.67432645 4.25566864 3.51426845 6.2265625 5.59765625 C4.88083363 8.5970953 3.39119149 10.67841804 1.06201172 12.98925781 C0.10124222 13.94980072 0.10124222 13.94980072 -0.87893677 14.92974854 C-1.56857513 15.60906433 -2.2582135 16.28838013 -2.96875 16.98828125 C-3.67619354 17.6928949 -4.38363708 18.39750854 -5.11251831 19.12347412 C-7.36983612 21.36961015 -9.63401383 23.60868634 -11.8984375 25.84765625 C-13.43144703 27.37063342 -14.96400465 28.89406564 -16.49609375 30.41796875 C-20.24998323 34.1498244 -24.00952664 37.87590976 -27.7734375 41.59765625 C-32.3616458 39.49717058 -35.320067 36.12957394 -38.70703125 32.49804688 C-42.13739457 28.91437071 -42.13739457 28.91437071 -46.7734375 27.59765625 C-47.58995026 29.88472372 -47.58995026 29.88472372 -47.7734375 32.59765625 C-46.43933281 34.85542141 -46.43933281 34.85542141 -44.328125 36.83984375 C-43.58046875 37.59523437 -42.8328125 38.350625 -42.0625 39.12890625 C-41.26585938 39.90234375 -40.46921875 40.67578125 -39.6484375 41.47265625 C-38.875 42.26929688 -38.1015625 43.0659375 -37.3046875 43.88671875 C-36.54929687 44.634375 -35.79390625 45.38203125 -35.015625 46.15234375 C-34.3232373 46.83796387 -33.63084961 47.52358398 -32.91748047 48.22998047 C-30.85851688 49.84828112 -30.85851688 49.84828112 -28.38145447 49.39677429 C-25.37683829 48.47613496 -24.09556189 47.40489901 -21.90112305 45.17944336 C-21.18075363 44.45877182 -20.46038422 43.73810028 -19.71818542 42.99559021 C-18.9565358 42.21329544 -18.19488617 41.43100067 -17.41015625 40.625 C-16.61817337 39.82735733 -15.82619049 39.02971466 -15.01020813 38.207901 C-12.48424207 35.65955492 -9.97254187 33.09765043 -7.4609375 30.53515625 C-5.75027081 28.80442689 -4.03869283 27.07459774 -2.32617188 25.34570312 C1.86870101 21.10674111 6.05194675 16.85656423 10.2265625 12.59765625 C15.77268168 17.90845677 17.39244338 24.99139987 17.70581055 32.53027344 C17.83205286 45.10697802 13.87062034 55.67008573 5.12109375 64.79296875 C-4.82928201 74.07541912 -14.80553142 77.08854581 -28.3125 76.84375 C-39.51111637 76.04746012 -49.60154858 70.69197262 -57.24609375 62.5078125 C-59.95710886 59.11731023 -61.94682149 55.52521522 -63.7734375 51.59765625 C-64.09441406 50.93378906 -64.41539063 50.26992187 -64.74609375 49.5859375 C-68.82722053 39.62039535 -67.91382717 27.15921792 -64.09765625 17.27734375 C-58.33865777 5.62344123 -48.76126367 -1.89760162 -36.7734375 -6.40234375 C-24.12699147 -10.54785925 -10.84953534 -6.62634487 0 0 Z " fill="#000000" transform="translate(74.7734375,15.40234375)"/>
</svg>
