<?xml version="1.0" encoding="UTF-8"?>
<svg version="1.1" xmlns="http://www.w3.org/2000/svg" width="100" height="100">
<path d="M0 0 C5.05520809 4.70169703 6.14528973 9.86730626 6.48828125 16.49609375 C7.11607492 23.93834886 9.32557675 27.53069073 14.67578125 32.55859375 C16.92805574 36.57351785 16.85466012 39.99718268 16.67578125 44.55859375 C17.85140625 44.49671875 17.85140625 44.49671875 19.05078125 44.43359375 C21.67578125 44.55859375 21.67578125 44.55859375 23.67578125 46.55859375 C23.30078125 49.18359375 23.30078125 49.18359375 22.67578125 51.55859375 C21.68578125 51.55859375 20.69578125 51.55859375 19.67578125 51.55859375 C19.7221875 52.18765625 19.76859375 52.81671875 19.81640625 53.46484375 C20.08308843 59.78902107 19.49746172 64.40252764 15.67578125 69.55859375 C11.01849715 74.58251511 6.55639377 78.12504079 -0.5050354 78.75231934 C-3.08994249 78.8390377 -5.6675375 78.86197571 -8.25390625 78.859375 C-9.6776506 78.86580269 -9.6776506 78.86580269 -11.13015747 78.87236023 C-13.13217371 78.87808662 -15.13421076 78.87861629 -17.13623047 78.87426758 C-20.18233133 78.87111125 -23.22745677 78.89457561 -26.2734375 78.91992188 C-28.2252592 78.92219556 -30.17708349 78.92289804 -32.12890625 78.921875 C-33.03123993 78.93108475 -33.93357361 78.94029449 -34.86325073 78.94978333 C-41.46662118 78.90200894 -47.02358347 77.91869402 -52.53125 73.98046875 C-57.76365345 68.53163985 -60.46820142 63.84542004 -60.51171875 56.12109375 C-60.46410502 54.5997216 -60.40678746 53.07846963 -60.32421875 51.55859375 C-61.64421875 51.22859375 -62.96421875 50.89859375 -64.32421875 50.55859375 C-63.99421875 48.90859375 -63.66421875 47.25859375 -63.32421875 45.55859375 C-61.01421875 44.89859375 -58.70421875 44.23859375 -56.32421875 43.55859375 C-56.56398438 42.79289062 -56.56398438 42.79289062 -56.80859375 42.01171875 C-58.53711788 33.78813424 -58.44154173 23.96977511 -54.32421875 16.55859375 C-51.66347645 13.35764013 -49.00110285 11.74661711 -44.94921875 10.62109375 C-40.65378818 10.5470346 -37.43039646 11.33394426 -33.32421875 12.55859375 C-33.09992187 11.98238281 -32.875625 11.40617187 -32.64453125 10.8125 C-26.47371948 0.27830358 -10.83720045 -5.81949905 0 0 Z M-24.38671875 13.87109375 C-25.02609375 14.75796875 -25.66546875 15.64484375 -26.32421875 16.55859375 C-25.08868599 17.76113899 -23.83519536 18.94525607 -22.57421875 20.12109375 C-21.878125 20.78238281 -21.18203125 21.44367187 -20.46484375 22.125 C-18.49205352 23.7888446 -18.49205352 23.7888446 -16.48046875 23.30859375 C-15.76890625 23.06109375 -15.05734375 22.81359375 -14.32421875 22.55859375 C-12.07714634 22.33877145 -9.82650637 22.15375388 -7.57421875 21.99609375 C-5.81851563 21.87041016 -5.81851563 21.87041016 -4.02734375 21.7421875 C-3.1353125 21.68160156 -2.24328125 21.62101562 -1.32421875 21.55859375 C-0.97714871 15.77409303 -1.0518817 11.59295844 -4.32421875 6.55859375 C-11.6551778 2.89311422 -19.67888113 8.24041296 -24.38671875 13.87109375 Z M-46.51171875 20.43359375 C-49.67267727 24.13954512 -49.50725426 27.1878406 -49.51171875 31.87109375 C-49.52589844 33.18722656 -49.54007813 34.50335938 -49.5546875 35.859375 C-49.49782905 39.88083475 -49.49782905 39.88083475 -47.32421875 44.55859375 C-37.42421875 44.55859375 -27.52421875 44.55859375 -17.32421875 44.55859375 C-18.48698347 35.25647602 -20.87737383 30.01796327 -28.19921875 24.18359375 C-33.23290875 20.7120834 -41.11386159 15.80685904 -46.51171875 20.43359375 Z M-13.32421875 30.55859375 C-13.01484375 31.38359375 -12.70546875 32.20859375 -12.38671875 33.05859375 C-11.32421875 36.55859375 -11.32421875 36.55859375 -10.32421875 44.55859375 C-4.05421875 44.55859375 2.21578125 44.55859375 8.67578125 44.55859375 C8.71275897 36.96131939 8.71275897 36.96131939 4.31640625 32.00390625 C1.01174939 29.09266092 -1.54642486 28.61317578 -5.88671875 28.30859375 C-9.0335629 28.53745514 -10.71145627 28.88642577 -13.32421875 30.55859375 Z " fill="#000000" transform="translate(70.32421875,8.44140625)"/>
</svg>
