<?xml version="1.0" encoding="UTF-8"?>
<svg version="1.1" xmlns="http://www.w3.org/2000/svg" width="100" height="100">
<path d="M0 0 C1.10338218 0.9363831 2.20541029 1.87436188 3.30688477 2.81298828 C4.22764549 3.59622971 4.22764549 3.59622971 5.16700745 4.39529419 C7.87952853 6.76998924 10.41223193 9.30432601 12.9375 11.875 C13.43056641 12.37257813 13.92363281 12.87015625 14.43164062 13.3828125 C15.62345992 14.58620285 16.81208678 15.79275365 18 17 C11.00012488 25.30936121 3.56316533 33.19482827 -3.98852921 41.00327969 C-6.36139255 43.45880868 -8.71394773 45.92844303 -11.02734375 48.44018555 C-28.10891276 66.9485271 -28.10891276 66.9485271 -37.92279053 67.3986969 C-41.39764623 67.2367746 -44.60648388 66.77317646 -48 66 C-49.71674618 59.7857365 -50.22462126 54.16115811 -48 48 C-42.0293465 39.05401527 -33.58313351 31.79911306 -25.74902344 24.51306152 C-22.82074279 21.77055748 -19.94416743 18.97489138 -17.0625 16.18359375 C-11.42362473 10.73646589 -5.73111569 5.35017387 0 0 Z " fill="#000000" transform="translate(60,22)"/>
<path d="M0 0 C3.10352458 1.60923497 5.21701424 3.00347267 7.375 5.75 C8.7993604 10.87769745 8.72716223 14.59953942 6.3125 19.25 C4 22 4 22 -1 26 C-6.61 20.39 -12.22 14.78 -18 9 C-12.14789629 2.17254567 -8.95632312 -1.41234326 0 0 Z " fill="#000000" transform="translate(84,8)"/>
</svg>
