<?xml version="1.0" encoding="UTF-8"?>
<svg xmlns="http://www.w3.org/2000/svg" width="12" height="12" viewBox="0 0 12 12" fill="none">
<path d="M7.20005 2.64001C7.33246 2.75238 7.4647 2.86494 7.59688 2.97757C7.70737 3.07156 7.70737 3.07156 7.8201 3.16745C8.1456 3.45241 8.44952 3.75653 8.75255 4.06501C8.81172 4.12472 8.87089 4.18443 8.93185 4.24595C9.07487 4.39036 9.21751 4.53515 9.36005 4.68001C8.52007 5.67714 7.62763 6.62339 6.72143 7.56041C6.43669 7.85507 6.15438 8.15143 5.87677 8.45284C3.82698 10.6738 3.82699 10.6738 2.64932 10.7279C2.23234 10.7084 1.84728 10.6528 1.44005 10.56C1.23405 9.8143 1.1731 9.13935 1.44005 8.40001C2.15653 7.3265 3.17008 6.45591 4.11017 5.58158C4.46157 5.25248 4.80675 4.917 5.15255 4.58205C5.82922 3.92839 6.51232 3.28204 7.20005 2.64001Z" fill="#FFFDFA"/>
<path d="M10.0799 0.960004C10.4523 1.15311 10.706 1.32042 10.9649 1.65C11.1358 2.26533 11.1272 2.71195 10.8374 3.27C10.5599 3.6 10.5599 3.6 9.95992 4.08C9.28672 3.4068 8.61352 2.7336 7.91992 2.04C8.62217 1.22071 9.00516 0.790523 10.0799 0.960004Z" fill="#FFFDFA"/>
</svg>