<?xml version="1.0" standalone="no"?>
<!DOCTYPE svg PUBLIC "-//W3C//DTD SVG 20010904//EN"
 "http://www.w3.org/TR/2001/REC-SVG-20010904/DTD/svg10.dtd">
<svg version="1.0" xmlns="http://www.w3.org/2000/svg"
 width="100.000000pt" height="100.000000pt" viewBox="0 0 100.000000 100.000000"
 preserveAspectRatio="xMidYMid meet">

<g transform="translate(0.000000,100.000000) scale(0.100000,-0.100000)"
fill="#000000" stroke="none">
<path d="M626 990 c-54 -16 -106 -85 -106 -139 0 -16 5 -18 33 -12 69 16 113
61 124 126 6 38 2 40 -51 25z"/>
<path d="M454 791 c-31 -14 -61 -56 -85 -121 -14 -39 -45 -87 -94 -145 -44
-52 -80 -106 -89 -133 -43 -126 7 -253 119 -303 33 -14 69 -17 195 -18 145 0
158 2 207 25 86 41 131 127 121 232 -6 65 -29 107 -108 203 -45 54 -76 103
-90 141 -29 81 -64 118 -115 123 -22 3 -50 1 -61 -4z"/>
</g>
</svg>
