<?xml version="1.0" standalone="no"?>
<!DOCTYPE svg PUBLIC "-//W3C//DTD SVG 20010904//EN"
 "http://www.w3.org/TR/2001/REC-SVG-20010904/DTD/svg10.dtd">
<svg version="1.0" xmlns="http://www.w3.org/2000/svg"
 width="100.000000pt" height="100.000000pt" viewBox="0 0 100.000000 100.000000"
 preserveAspectRatio="xMidYMid meet">

<g transform="translate(0.000000,100.000000) scale(0.100000,-0.100000)"
fill="#000000" stroke="none">
<path d="M131 877 c-18 -46 -34 -179 -28 -236 7 -77 45 -161 88 -193 30 -22
99 -52 104 -46 2 2 5 38 7 80 5 75 4 80 -34 149 -30 56 -36 74 -27 85 21 26
46 15 73 -31 l27 -44 61 61 61 61 -24 20 c-40 33 -114 66 -205 92 -47 14 -88
25 -90 25 -3 0 -8 -10 -13 -23z"/>
<path d="M612 744 c-68 -18 -104 -37 -152 -81 -103 -92 -125 -226 -53 -321
l25 -34 -31 -80 c-37 -92 -37 -123 -2 -123 21 0 29 12 62 94 62 151 154 295
247 384 72 70 114 26 45 -47 -66 -68 -112 -130 -158 -212 -25 -43 -45 -82 -45
-86 0 -5 30 -8 68 -8 122 0 207 60 252 177 19 48 24 84 28 206 l4 147 -118 -1
c-69 0 -141 -6 -172 -15z"/>
</g>
</svg>
