<?xml version="1.0" standalone="no"?>
<!DOCTYPE svg PUBLIC "-//W3C//DTD SVG 20010904//EN"
 "http://www.w3.org/TR/2001/REC-SVG-20010904/DTD/svg10.dtd">
<svg xmlns="http://www.w3.org/2000/svg" width="24" height="24" viewBox="0 0 24 24" fill="none">
<path d="M0.878191 0.694275C0.338382 2.08295 -0.141448 6.09805 0.038488 7.8188C0.248414 10.1433 1.38801 12.6792 2.67755 13.6452C3.57723 14.3094 5.6465 15.215 5.79645 15.0339C5.85643 14.9735 5.94639 13.8867 6.00637 12.6188C6.15632 10.3547 6.12633 10.2037 4.98673 8.12069C4.08705 6.43012 3.90712 5.88673 4.17702 5.55465C4.8068 4.76975 5.55653 5.10182 6.36625 6.4905L7.17596 7.8188L9.00531 5.97729L10.8347 4.13578L10.1149 3.53201C8.91534 2.53578 6.69613 1.53956 3.9671 0.754652C2.5576 0.332011 1.32803 -6.48499e-05 1.26805 -6.48499e-05C1.17808 -6.48499e-05 1.02814 0.301822 0.878191 0.694275Z" fill="#FFFDFA"/>
<path d="M15.3031 4.70943C13.2638 5.25283 12.1842 5.82641 10.7447 7.15472C7.65579 9.93207 6.99602 13.9774 9.15526 16.8453L9.90499 17.8717L8.97532 20.2868C7.86572 23.0642 7.86572 24 8.91534 24C9.54512 24 9.78504 23.6377 10.7747 21.1623C12.634 16.6038 15.393 12.2566 18.1821 9.56981C20.3413 7.4566 21.6009 8.7849 19.5316 10.9887C17.5523 13.0415 16.1728 14.9132 14.7933 17.3887C14.0435 18.6868 13.4437 19.8642 13.4437 19.9849C13.4437 20.1358 14.3434 20.2264 15.483 20.2264C19.1417 20.2264 21.6908 18.4151 23.0403 14.883C23.6101 13.434 23.7601 12.3472 23.88 8.66415L24 4.22641L20.4613 4.2566C18.392 4.2566 16.2328 4.43773 15.3031 4.70943Z" fill="#FFFDFA"/>
</svg>