<?xml version="1.0" encoding="UTF-8"?>
<svg version="1.1" xmlns="http://www.w3.org/2000/svg" width="100" height="100">
<path d="M0 0 C1.29804565 -0.00315216 2.59609131 -0.00630432 3.93347168 -0.009552 C5.36124709 -0.00776222 6.78902219 -0.00571127 8.21679688 -0.00341797 C9.67028825 -0.00409105 11.12377952 -0.00506111 12.57727051 -0.00631714 C15.62720814 -0.00779393 18.67711654 -0.00564017 21.72705078 -0.00097656 C25.64485247 0.00472073 29.56258566 0.00144162 33.48038483 -0.00454903 C36.48285441 -0.00815515 39.48530764 -0.00701582 42.48777771 -0.00442123 C43.93273425 -0.00375211 45.37769226 -0.00457989 46.82264709 -0.00690079 C48.83879571 -0.00942812 50.8549495 -0.00489598 52.87109375 0 C54.59531555 0.00119339 54.59531555 0.00119339 56.35437012 0.00241089 C58.93554688 0.12939453 58.93554688 0.12939453 59.93554688 1.12939453 C60.04550355 3.18338857 60.08467511 5.24119564 60.09667969 7.2980957 C60.10412704 8.26409195 60.10412704 8.26409195 60.11172485 9.24960327 C60.12638604 11.390534 60.13315697 13.5313905 60.13867188 15.67236328 C60.14442259 17.15871686 60.15018033 18.64507042 60.15594482 20.13142395 C60.16646777 23.2545303 60.17230112 26.37761083 60.17578125 29.50073242 C60.18125147 33.49439613 60.20524204 37.48771638 60.2337532 41.4812727 C60.25242437 44.55515011 60.25758768 47.62894582 60.25911713 50.70287514 C60.26213697 52.17441995 60.27014295 53.64596355 60.28330231 55.11745262 C60.30044797 57.18313593 60.29846182 59.24799418 60.29199219 61.3137207 C60.29746063 63.0745826 60.29746063 63.0745826 60.30303955 64.87101746 C59.81535007 69.19512057 58.38422939 72.577498 55.40039062 75.77392578 C51.1356526 79.03519604 49.09371182 80.25132604 43.77075195 80.30639648 C42.15315727 80.32564934 42.15315727 80.32564934 40.50288391 80.34529114 C39.332108 80.35267807 38.16133209 80.360065 36.95507812 80.36767578 C35.75372726 80.37574753 34.5523764 80.38381927 33.31462097 80.39213562 C30.76664681 80.40598763 28.218654 80.41670476 25.6706543 80.42456055 C21.78137775 80.44174724 17.89295674 80.48562224 14.00390625 80.52978516 C11.52930313 80.53991412 9.05469278 80.54842958 6.58007812 80.55517578 C5.41942337 80.57268387 4.25876862 80.59019196 3.0629425 80.60823059 C-3.55361262 80.59053919 -7.69382021 80.10108454 -13.06445312 76.12939453 C-16.19621889 72.83279899 -17.29636148 69.25140849 -17.37695312 64.75439453 C-17.06445312 61.12939453 -17.06445312 61.12939453 -16.06445312 60.12939453 C-14.54517275 60.05759489 -13.02277831 60.04547446 -11.50195312 60.06689453 C-10.67566406 60.07591797 -9.849375 60.08494141 -8.99804688 60.09423828 C-8.35996094 60.10583984 -7.721875 60.11744141 -7.06445312 60.12939453 C-7.06667374 59.39245865 -7.06889435 58.65552277 -7.07118225 57.89625549 C-7.09118515 50.96526685 -7.10642725 44.03428249 -7.1162653 37.10327244 C-7.12149308 33.53962031 -7.12858882 29.97599196 -7.13989258 26.41235352 C-7.15279488 22.31933356 -7.15768219 18.22633873 -7.16210938 14.13330078 C-7.16727066 12.84790909 -7.17243195 11.5625174 -7.17774963 10.23817444 C-7.17786293 8.46645119 -7.17786293 8.46645119 -7.17797852 6.65893555 C-7.18019913 5.6130275 -7.18241974 4.56711945 -7.18470764 3.48951721 C-6.94750147 -1.1659059 -4.0163296 0.00277983 0 0 Z M-0.06445312 7.12939453 C-0.06445312 24.61939453 -0.06445312 42.10939453 -0.06445312 60.12939453 C15.77554688 60.62439453 15.77554688 60.62439453 31.93554688 61.12939453 C33.25554688 64.09939453 34.57554688 67.06939453 35.93554688 70.12939453 C38.98367862 72.93038046 40.35193916 73.12939453 44.49804688 73.12939453 C48.60441675 71.9348142 49.748789 70.74595563 51.93554688 67.12939453 C52.99093607 63.90127272 53.05669179 60.9177358 53.04907227 57.53466797 C53.04899673 56.41380798 53.0489212 55.292948 53.04884338 54.13812256 C53.04110146 52.33169281 53.04110146 52.33169281 53.03320312 50.48876953 C53.0310807 48.63279144 53.0310807 48.63279144 53.02891541 46.73931885 C53.02426797 43.45794512 53.01529035 40.1766208 53.00421143 36.89526367 C52.99396207 33.54362442 52.98949546 30.19198305 52.984375 26.84033203 C52.97419788 20.26998019 52.9546221 13.6997507 52.93554688 7.12939453 C35.44554687 7.12939453 17.95554687 7.12939453 -0.06445312 7.12939453 Z " fill="#000000" transform="translate(27.064453125,9.87060546875)"/>
<path d="M0 0 C6.6 0 13.2 0 20 0 C20 2.64 20 5.28 20 8 C13.4 8 6.8 8 0 8 C0 5.36 0 2.72 0 0 Z " fill="#000000" transform="translate(50,26)"/>
<path d="M0 0 C6.6 0 13.2 0 20 0 C20 2.31 20 4.62 20 7 C13.4 7 6.8 7 0 7 C0 4.69 0 2.38 0 0 Z " fill="#000000" transform="translate(50,53)"/>
<path d="M0 0 C6.6 0 13.2 0 20 0 C20 2.31 20 4.62 20 7 C13.4 7 6.8 7 0 7 C0 4.69 0 2.38 0 0 Z " fill="#000000" transform="translate(50,40)"/>
<path d="M0 0 C2.64 0 5.28 0 8 0 C8 2.64 8 5.28 8 8 C5.36 8 2.72 8 0 8 C0 5.36 0 2.72 0 0 Z " fill="#000000" transform="translate(36,26)"/>
<path d="M0 0 C2.64 0 5.28 0 8 0 C8 2.31 8 4.62 8 7 C5.36 7 2.72 7 0 7 C0 4.69 0 2.38 0 0 Z " fill="#000000" transform="translate(36,53)"/>
<path d="M0 0 C2.64 0 5.28 0 8 0 C8 2.31 8 4.62 8 7 C5.36 7 2.72 7 0 7 C0 4.69 0 2.38 0 0 Z " fill="#000000" transform="translate(36,40)"/>
</svg>
