<?xml version="1.0" standalone="no"?>
<svg xmlns="http://www.w3.org/2000/svg" width="24" height="24" viewBox="0 0 24 24" fill="none">
<path d="M13.4634 0.475647C14.0488 1.06101 14.0488 1.06101 14.1152 1.93349C14.1122 2.29828 14.1091 2.66307 14.1059 3.03891C14.1051 3.23297 14.1043 3.42704 14.1034 3.62698C14.1002 4.24732 14.0928 4.86754 14.0854 5.48784C14.0824 5.90819 14.0798 6.32854 14.0774 6.74889C14.0709 7.7798 14.0608 8.81064 14.0488 9.8415C14.4409 9.8346 14.4409 9.8346 14.8409 9.82757C15.8113 9.8126 16.7815 9.80159 17.752 9.79327C18.1719 9.78885 18.5918 9.78286 19.0116 9.77526C19.6154 9.7646 20.2189 9.75963 20.8228 9.75575C21.3677 9.74886 21.3677 9.74886 21.9236 9.74182C22.8293 9.8415 22.8293 9.8415 23.3777 10.2424C23.8381 10.9088 23.9614 11.3721 24 12.183C23.6659 12.8512 23.359 13.4093 22.8293 13.9391C22.1799 13.9648 21.5298 13.9704 20.88 13.9676C20.5882 13.967 20.5882 13.967 20.2906 13.9664C19.6673 13.9647 19.044 13.9611 18.4207 13.9574C17.999 13.9559 17.5774 13.9546 17.1557 13.9534C16.12 13.9501 15.0844 13.9451 14.0488 13.9391C14.0534 14.2005 14.058 14.4618 14.0627 14.7311C14.0777 15.7015 14.0887 16.6718 14.097 17.6423C14.1014 18.0622 14.1074 18.482 14.115 18.9019C14.1257 19.5056 14.1307 20.1092 14.1345 20.7131C14.1391 21.0763 14.1437 21.4396 14.1485 21.8138C14.0488 22.7195 14.0488 22.7195 13.6478 23.268C12.9814 23.7284 12.5182 23.8517 11.7073 23.8903C11.0391 23.5562 10.4809 23.2493 9.95122 22.7195C9.92551 22.0702 9.91992 21.4201 9.92264 20.7702C9.92305 20.5758 9.92346 20.3813 9.92389 20.1809C9.92553 19.5576 9.92921 18.9343 9.93293 18.311C9.93439 17.8893 9.93573 17.4676 9.93693 17.046C9.94016 16.0103 9.94522 14.9747 9.95122 13.9391C9.68983 13.9437 9.42844 13.9483 9.15913 13.953C8.18874 13.968 7.21848 13.979 6.24802 13.9873C5.82813 13.9917 5.40825 13.9977 4.9884 14.0053C4.38464 14.016 3.78105 14.0209 3.17721 14.0248C2.81395 14.0294 2.4507 14.034 2.07643 14.0387C1.17073 13.9391 1.17073 13.9391 0.622308 13.5381C0.161903 12.8717 0.0386128 12.4085 0 11.5976C0.334124 10.9293 0.641013 10.3712 1.17073 9.8415C1.82006 9.81579 2.47021 9.8102 3.12005 9.81292C3.41176 9.81354 3.41176 9.81354 3.70937 9.81417C4.33268 9.81582 4.95597 9.81949 5.57927 9.82321C6.00095 9.82468 6.42264 9.82601 6.84432 9.82721C7.87996 9.83044 8.91559 9.8355 9.95122 9.8415C9.94662 9.58011 9.94202 9.31872 9.93729 9.04941C9.92232 8.07903 9.91131 7.10876 9.90299 6.1383C9.89857 5.71841 9.89258 5.29853 9.88498 4.87868C9.87432 4.27492 9.86935 3.67133 9.86547 3.06749C9.86087 2.70424 9.85628 2.34098 9.85154 1.96672C9.95122 1.06101 9.95122 1.06101 10.3407 0.514876C11.5236 -0.288744 12.2061 -0.0326116 13.4634 0.475647Z" fill="#FFFDFA"/>
</svg>