<?xml version="1.0" standalone="no"?>
<svg xmlns="http://www.w3.org/2000/svg" width="20" height="20" viewBox="0 0 20 20" fill="none">
<path d="M15.3804 1.7219C17.4931 3.24361 19.0808 5.25626 19.6001 7.84003C19.9212 10.8202 19.6661 13.4534 17.8751 15.94C16.2401 17.8805 14.2469 19.3752 11.6631 19.6536C8.56435 19.8685 5.97994 19.4927 3.53599 17.4335C1.49167 15.4819 0.399458 13.4061 0.287088 10.5676C0.249878 7.56414 0.926014 5.25454 3.04006 3.04003C6.34729 -0.117157 11.4652 -0.71952 15.3804 1.7219ZM9.52006 5.44003C9.18608 5.71909 9.18608 5.71909 9.25662 6.49097C9.258 6.82566 9.26112 7.16035 9.26506 7.49503C9.27001 8.08408 9.27496 8.67313 9.28006 9.28003C8.09206 9.28003 6.90406 9.28003 5.68006 9.28003C5.60086 9.67603 5.52166 10.072 5.44006 10.48C5.71912 10.814 5.71912 10.814 6.49099 10.7435C6.82569 10.7421 7.16038 10.739 7.49506 10.735C8.37863 10.7276 8.37863 10.7276 9.28006 10.72C9.28006 11.908 9.28006 13.096 9.28006 14.32C9.67606 14.3992 10.0721 14.4784 10.4801 14.56C10.814 14.281 10.814 14.281 10.7435 13.5091C10.7421 13.1744 10.739 12.8397 10.7351 12.505C10.7276 11.6215 10.7276 11.6215 10.7201 10.72C11.9081 10.72 13.0961 10.72 14.3201 10.72C14.3993 10.324 14.4785 9.92803 14.5601 9.52003C14.281 9.18605 14.281 9.18605 13.5091 9.25659C13.1744 9.25797 12.8397 9.26109 12.5051 9.26503C11.916 9.26998 11.327 9.27493 10.7201 9.28003C10.7201 8.09203 10.7201 6.90403 10.7201 5.68003C10.3241 5.60083 9.92806 5.52163 9.52006 5.44003Z" fill="#FFFDFA"/>
</svg>