<?xml version="1.0" encoding="UTF-8"?>
<svg version="1.1" xmlns="http://www.w3.org/2000/svg" width="100" height="100">
<path d="M0 0 C2.5 1.875 2.5 1.875 4 4 C4 4.66 4 5.32 4 6 C23.8 6 43.6 6 64 6 C64 7.32 64 8.64 64 10 C44.2 10 24.4 10 4 10 C3.34 11.65 2.68 13.3 2 15 C-1.19286823 16.59643412 -4.53420693 16.51370451 -8 16 C-10.5 14.125 -10.5 14.125 -12 12 C-12 11.34 -12 10.68 -12 10 C-17.28 10 -22.56 10 -28 10 C-28 8.68 -28 7.36 -28 6 C-22.72 6 -17.44 6 -12 6 C-11.34 4.35 -10.68 2.7 -10 1 C-6.80713177 -0.59643412 -3.46579307 -0.51370451 0 0 Z M-6 5 C-6.33 6.65 -6.66 8.3 -7 10 C-4.525 10.495 -4.525 10.495 -2 11 C-1.67 9.35 -1.34 7.7 -1 6 C-2.65 5.67 -4.3 5.34 -6 5 Z " fill="#000000" transform="translate(32,70)"/>
<path d="M0 0 C2.5 1.875 2.5 1.875 4 4 C4 4.66 4 5.32 4 6 C7.3 6 10.6 6 14 6 C14 7.32 14 8.64 14 10 C10.7 10 7.4 10 4 10 C3.71125 10.804375 3.4225 11.60875 3.125 12.4375 C2 15 2 15 0 16 C-7.22330097 16.58252427 -7.22330097 16.58252427 -10.5 14.125 C-12 12 -12 12 -12 10 C-33.78 10 -55.56 10 -78 10 C-78 8.68 -78 7.36 -78 6 C-56.22 6 -34.44 6 -12 6 C-11.34 4.35 -10.68 2.7 -10 1 C-6.80713177 -0.59643412 -3.46579307 -0.51370451 0 0 Z M-6 5 C-6.33 6.65 -6.66 8.3 -7 10 C-4.525 10.495 -4.525 10.495 -2 11 C-1.67 9.35 -1.34 7.7 -1 6 C-2.65 5.67 -4.3 5.34 -6 5 Z " fill="#000000" transform="translate(82,42)"/>
<path d="M0 0 C2.5 1.875 2.5 1.875 4 4 C4 4.66 4 5.32 4 6 C16.54 6 29.08 6 42 6 C42 7.32 42 8.64 42 10 C29.46 10 16.92 10 4 10 C3.34 11.65 2.68 13.3 2 15 C-1.19286823 16.59643412 -4.53420693 16.51370451 -8 16 C-10.5 14.125 -10.5 14.125 -12 12 C-12 11.34 -12 10.68 -12 10 C-24.54 10 -37.08 10 -50 10 C-50 8.68 -50 7.36 -50 6 C-37.46 6 -24.92 6 -12 6 C-11.34 4.35 -10.68 2.7 -10 1 C-6.80713177 -0.59643412 -3.46579307 -0.51370451 0 0 Z M-6 5 C-6.33 6.65 -6.66 8.3 -7 10 C-4.525 10.495 -4.525 10.495 -2 11 C-1.67 9.35 -1.34 7.7 -1 6 C-2.65 5.67 -4.3 5.34 -6 5 Z " fill="#000000" transform="translate(54,14)"/>
</svg>
