<?xml version="1.0" encoding="UTF-8"?>
<svg version="1.1" xmlns="http://www.w3.org/2000/svg" width="64" height="64">
<path d="M0 0 C1.97226562 -0.01740234 1.97226562 -0.01740234 3.984375 -0.03515625 C18.98991485 0.01004116 18.98991485 0.01004116 24 3.375 C24.7265625 5.48291016 24.7265625 5.48291016 25 7.375 C21.48812804 9.78314077 19.27343092 10.74129408 15 10.375 C15.0825 11.24125 15.165 12.1075 15.25 13 C15 16.375 15 16.375 13 19.3125 C10.61648875 22.9622516 10.65815111 25.10188883 11 29.375 C11.99 29.705 12.98 30.035 14 30.375 C14 34.005 14 37.635 14 41.375 C4.76 41.375 -4.48 41.375 -14 41.375 C-14 37.745 -14 34.115 -14 30.375 C-13.01 30.045 -12.02 29.715 -11 29.375 C-10.52976406 23.49705076 -11.74973183 21.14883137 -15 16.375 C-15.25 13 -15.25 13 -15 10.375 C-16.918125 10.189375 -16.918125 10.189375 -18.875 10 C-22.75 9.625 -22.75 9.625 -25 7.375 C-24.8515625 5.35791016 -24.8515625 5.35791016 -24 3.375 C-17.29982743 -1.12508418 -7.64767597 -0.06747949 0 0 Z M-10 6.375 C-11.49590709 9.36681417 -11.42743011 11.0166206 -11 14.375 C-8.42730355 19.28574958 -5.5996815 23.2252181 -1 26.375 C4.48796204 24.13916361 8.5333681 19.69773199 11 14.375 C11.32774557 10.22004291 11.32774557 10.22004291 10 6.375 C6.49904689 5.20801563 3.6877768 5.24231713 0 5.25 C-1.2375 5.24742188 -2.475 5.24484375 -3.75 5.2421875 C-7.01230773 5.22508698 -7.01230773 5.22508698 -10 6.375 Z M-6 27.375 C-6.04241723 29.70794775 -6.04092937 32.04202567 -6 34.375 C-4.96966611 35.62673779 -4.96966611 35.62673779 -2.75 35.5078125 C-1.38875 35.50394531 -1.38875 35.50394531 0 35.5 C0.9075 35.50257812 1.815 35.50515625 2.75 35.5078125 C4.96966611 35.62673779 4.96966611 35.62673779 6 34.375 C6.04092937 32.04202567 6.04241723 29.70794775 6 27.375 C5.01 27.87 5.01 27.87 4 28.375 C2.125 28.5078125 2.125 28.5078125 0 28.5 C-1.051875 28.50386719 -1.051875 28.50386719 -2.125 28.5078125 C-4 28.375 -4 28.375 -6 27.375 Z " fill="#000000" transform="translate(32,16.625)"/>
<path d="M0 0 C1.85625 -0.00386719 1.85625 -0.00386719 3.75 -0.0078125 C7 0.125 7 0.125 10 1.125 C10.99 4.095 11.98 7.065 13 10.125 C4.42 10.455 -4.16 10.785 -13 11.125 C-11.66666667 4.45833333 -11.66666667 4.45833333 -10 1.125 C-6.49904689 -0.04198437 -3.6877768 -0.00768287 0 0 Z " fill="#000000" transform="translate(32,4.875)"/>
<path d="M0 0 C0.33 2.97 0.66 5.94 1 9 C-5.93359375 9.09765625 -5.93359375 9.09765625 -8 9 C-9 8 -9 8 -9.0625 4.9375 C-9.041875 3.968125 -9.02125 2.99875 -9 2 C-3.375 0 -3.375 0 0 0 Z " fill="#000000" transform="translate(14,49)"/>
<path d="M0 0 C4.455 0.99 4.455 0.99 9 2 C9.04254356 3.99954746 9.04080783 6.00041636 9 8 C8 9 8 9 5.93359375 9.09765625 C2.46679688 9.04882812 2.46679688 9.04882812 -1 9 C-0.67 6.03 -0.34 3.06 0 0 Z " fill="#000000" transform="translate(50,49)"/>
</svg>
