<svg width="24" height="26" viewBox="0 0 24 26" fill="none" xmlns="http://www.w3.org/2000/svg">
<path d="M15.1151 0.634554C16.6785 1.60002 17.7047 2.73034 18.4011 4.45361C18.5787 5.36439 18.6005 6.2367 18.5817 7.1627C18.5775 7.52352 18.5775 7.52352 18.5732 7.89162C18.484 10.3033 17.7178 11.5821 16.0131 13.2431C14.3327 14.3087 12.6727 14.6527 10.6953 14.407C8.71378 13.7579 7.10908 12.7895 5.99579 10.988C5.07967 8.7358 5.06452 5.78375 5.91176 3.50041C7.94337 0.241144 11.4995 -0.810689 15.1151 0.634554Z" fill="#48872B"/>
<path d="M22.5752 20.5074C23.5564 21.4201 23.8156 21.7988 24 23.1162C23.8595 24.0393 23.8595 24.0393 23.5003 24.5708C22.6057 25.2102 21.8896 25.1249 20.798 25.1271C20.4807 25.1297 20.4807 25.1297 20.157 25.1322C19.4579 25.1365 18.7591 25.1337 18.0601 25.1304C17.5743 25.1311 17.0884 25.132 16.6026 25.1332C15.5845 25.1346 14.5665 25.1326 13.5484 25.1281C12.243 25.1226 10.9378 25.1257 9.63238 25.1315C8.62921 25.135 7.62608 25.1339 6.62291 25.1314C6.14157 25.1307 5.66023 25.1315 5.1789 25.1338C4.50628 25.1362 3.83397 25.1325 3.16137 25.1271C2.77855 25.1264 2.39573 25.1256 2.0013 25.1248C1.06308 25.0025 1.06308 25.0025 0.459102 24.5708C-0.116321 23.7194 -0.0402396 23.1134 0.0998499 22.1128C1.87083 19.4158 5.68886 18.0864 8.75262 17.4371C13.6281 16.7379 18.4853 17.6956 22.5752 20.5074Z" fill="#48872B"/>
</svg>
