<?xml version="1.0" encoding="UTF-8"?>
<svg version="1.1" xmlns="http://www.w3.org/2000/svg" width="100" height="100">
<path d="M0 0 C5.28352563 0.5788799 8.51919213 5.3485022 12.09130859 8.98510742 C12.93564453 9.80172852 13.77998047 10.61834961 14.64990234 11.4597168 C15.44267578 12.25571289 16.23544922 13.05170898 17.05224609 13.87182617 C17.77976074 14.59974365 18.50727539 15.32766113 19.25683594 16.07763672 C20.71630859 18.29760742 20.71630859 18.29760742 20.67724609 20.81347656 C19.54857577 23.73121552 18.22755653 25.27384453 16.00537109 27.46948242 C15.25513672 28.21584961 14.50490234 28.9622168 13.73193359 29.73120117 C12.54857422 30.87782227 12.54857422 30.87782227 11.34130859 32.04760742 C10.56013672 32.82749023 9.77896484 33.60737305 8.97412109 34.41088867 C3.13803981 40.15703035 3.13803981 40.15703035 -0.28369141 41.29760742 C-3.28369141 39.29760742 -3.28369141 39.29760742 -3.75244141 36.97338867 C-3.11079288 33.310645 -1.47883638 31.99308955 1.21630859 29.48510742 C2.46927734 28.29981445 2.46927734 28.29981445 3.74755859 27.09057617 C4.39724609 26.49889648 5.04693359 25.9072168 5.71630859 25.29760742 C4.75608795 25.28952057 3.79586731 25.28143372 2.80654907 25.27310181 C-6.22865988 25.19572346 -15.26371671 25.10800555 -24.29872704 25.01008034 C-28.94407522 24.96006673 -33.5894001 24.91373733 -38.23486328 24.87573242 C-42.71533524 24.83894335 -47.19561457 24.79260119 -51.67592239 24.73954391 C-53.38796241 24.72096593 -55.10004377 24.70587064 -56.81214523 24.69426346 C-59.20439263 24.6774589 -61.59619553 24.64843891 -63.98828125 24.61645508 C-65.05750572 24.6132148 -65.05750572 24.6132148 -66.14833069 24.60990906 C-71.05558708 24.52571174 -71.05558708 24.52571174 -73.28369141 22.29760742 C-72.72813585 17.74205187 -72.72813585 17.74205187 -71.28369141 16.29760742 C-68.88118609 16.17271044 -66.50596356 16.11159952 -64.10180664 16.09228516 C-62.9750502 16.07743576 -62.9750502 16.07743576 -61.82553101 16.06228638 C-59.33114829 16.03058196 -56.83674649 16.00587884 -54.34228516 15.98120117 C-52.61735018 15.96063935 -50.89242033 15.93964309 -49.16749573 15.91822815 C-44.61862326 15.86292771 -40.06970474 15.81355374 -35.52075195 15.76538086 C-30.88244508 15.71522388 -26.24420543 15.6595076 -21.60595703 15.60424805 C-12.49859253 15.49656904 -3.39116976 15.39514585 5.71630859 15.29760742 C5.06662109 14.70592773 4.41693359 14.11424805 3.74755859 13.50463867 C2.91224609 12.71444336 2.07693359 11.92424805 1.21630859 11.11010742 C0.38099609 10.33280273 -0.45431641 9.55549805 -1.31494141 8.75463867 C-3.28369141 6.29760742 -3.28369141 6.29760742 -3.62744141 3.55932617 C-3.16681891 0.52863953 -3.04413336 0.39670714 0 0 Z " fill="#000000" transform="translate(76.28369140625,29.702392578125)"/>
</svg>
