<?xml version="1.0" encoding="UTF-8"?>
<svg xmlns="http://www.w3.org/2000/svg" width="12" height="6" viewBox="0 0 12 6" fill="none">
<path d="M9.35824 0C10.0329 0.0739222 10.4461 0.682997 10.9023 1.14739C11.0101 1.25167 11.1179 1.35595 11.229 1.46339C11.3302 1.56504 11.4315 1.66669 11.5358 1.77142C11.6287 1.86437 11.7216 1.95732 11.8173 2.05309C12.0037 2.33658 12.0037 2.33658 11.9987 2.65786C11.8546 3.03045 11.6859 3.22744 11.4021 3.50782C11.3063 3.60313 11.2105 3.69844 11.1118 3.79664C10.9607 3.94306 10.9607 3.94306 10.8065 4.09244C10.7068 4.19203 10.607 4.29162 10.5042 4.39423C9.75896 5.128 9.75896 5.128 9.32201 5.27365C8.93891 5.01826 8.93891 5.01826 8.87906 4.72146C8.96099 4.25373 9.16939 4.08548 9.51356 3.76521C9.67356 3.61385 9.67356 3.61385 9.8368 3.45943C9.91976 3.38388 10.0027 3.30832 10.0882 3.23047C9.96558 3.22944 9.84296 3.22841 9.71663 3.22734C8.56284 3.21746 7.40908 3.20626 6.25532 3.19376C5.66211 3.18737 5.06891 3.18145 4.47569 3.1766C3.90354 3.1719 3.33142 3.16598 2.75929 3.15921C2.54066 3.15684 2.32203 3.15491 2.1034 3.15343C1.79791 3.15128 1.49248 3.14758 1.18701 3.14349C1.05047 3.14308 1.05047 3.14308 0.911177 3.14265C0.284526 3.1319 0.284526 3.1319 0 2.84738C0.0709438 2.26564 0.0709438 2.26564 0.255398 2.08118C0.562195 2.06524 0.865507 2.05743 1.17252 2.05497C1.3164 2.05307 1.3164 2.05307 1.46319 2.05113C1.78172 2.04709 2.10025 2.04393 2.41879 2.04078C2.63907 2.03815 2.85934 2.03547 3.07961 2.03274C3.66049 2.02568 4.24138 2.01937 4.82228 2.01322C5.41459 2.00681 6.00688 1.9997 6.59918 1.99264C7.76218 1.97889 8.92519 1.96594 10.0882 1.95349C10.0052 1.87793 9.92227 1.80237 9.8368 1.72453C9.73013 1.62362 9.62346 1.52271 9.51356 1.41875C9.40689 1.31949 9.30022 1.22023 9.19032 1.11796C8.93891 0.804197 8.93891 0.804197 8.89502 0.454522C8.95384 0.0675066 8.9695 0.050659 9.35824 0Z" fill="#FFFDFA"/>
</svg>