<?xml version="1.0" standalone="no"?>
<!DOCTYPE svg PUBLIC "-//W3C//DTD SVG 20010904//EN"
 "http://www.w3.org/TR/2001/REC-SVG-20010904/DTD/svg10.dtd">
<svg version="1.0" xmlns="http://www.w3.org/2000/svg"
 width="100.000000pt" height="100.000000pt" viewBox="0 0 100.000000 100.000000"
 preserveAspectRatio="xMidYMid meet">

<g transform="translate(0.000000,100.000000) scale(0.100000,-0.100000)"
fill="#000000" stroke="none">
<path d="M354 891 c-50 -13 -133 -63 -165 -98 -16 -19 -41 -57 -56 -86 -23
-44 -27 -65 -28 -137 0 -102 27 -170 94 -237 108 -108 263 -129 396 -54 l50
28 108 -106 c91 -90 110 -104 125 -95 9 6 18 17 20 25 1 8 -44 61 -101 117
l-104 104 29 53 c43 79 54 157 33 236 -38 150 -155 248 -304 255 -36 2 -80 0
-97 -5z m186 -82 c171 -77 213 -297 80 -429 -51 -52 -119 -80 -191 -80 -58 0
-140 35 -181 77 -137 141 -87 371 96 440 51 19 145 15 196 -8z"/>
</g>
</svg>
