<?xml version="1.0" encoding="UTF-8"?>
<svg version="1.1" xmlns="http://www.w3.org/2000/svg" width="100" height="100">
<path d="M0 0 C4.31672261 0.60307154 5.64302165 2.32720779 8.5625 5.5078125 C9.51615899 6.52148286 10.47190009 7.53319831 11.4296875 8.54296875 C11.8947168 9.03941895 12.35974609 9.53586914 12.83886719 10.04736328 C15.2486551 12.54527161 17.886191 14.76623708 20.53125 17.0078125 C21.0778125 17.4821875 21.624375 17.9565625 22.1875 18.4453125 C23.06921875 19.1259375 23.06921875 19.1259375 23.96875 19.8203125 C24.3709375 20.3565625 24.773125 20.8928125 25.1875 21.4453125 C24.6925 23.9203125 24.6925 23.9203125 24.1875 26.4453125 C19.2375 26.4453125 14.2875 26.4453125 9.1875 26.4453125 C9.20321045 28.01998291 9.20321045 28.01998291 9.21923828 29.62646484 C9.25538453 33.51396283 9.27838078 37.40144591 9.29736328 41.2890625 C9.30743317 42.97300716 9.32108988 44.65693429 9.33837891 46.34082031 C9.36258426 48.75850751 9.37397296 51.17596393 9.3828125 53.59375 C9.39313507 54.3490097 9.40345764 55.10426941 9.41409302 55.88241577 C9.41449318 57.7382523 9.30972716 59.5935053 9.1875 61.4453125 C7.1875 63.4453125 7.1875 63.4453125 4 63.7109375 C2.1128125 63.70320313 2.1128125 63.70320313 0.1875 63.6953125 C-1.070625 63.70046875 -2.32875 63.705625 -3.625 63.7109375 C-6.8125 63.4453125 -6.8125 63.4453125 -8.8125 61.4453125 C-8.98760386 58.79239493 -9.04405483 56.24545076 -9.0078125 53.59375 C-9.0049826 52.81971832 -9.00215271 52.04568665 -8.99923706 51.24819946 C-8.98802754 48.77208093 -8.96292203 46.296322 -8.9375 43.8203125 C-8.92747118 42.14323438 -8.91834516 40.46615061 -8.91015625 38.7890625 C-8.88808574 34.67434027 -8.85355102 30.55988739 -8.8125 26.4453125 C-13.7625 26.4453125 -18.7125 26.4453125 -23.8125 26.4453125 C-24.1425 24.7953125 -24.4725 23.1453125 -24.8125 21.4453125 C-23.22265625 19.234375 -23.22265625 19.234375 -20.875 17.0703125 C-19.63169922 15.90628906 -19.63169922 15.90628906 -18.36328125 14.71875 C-12.43491379 9.43496767 -12.43491379 9.43496767 -9.5859375 7.01953125 C-7.58481665 5.30414033 -7.58481665 5.30414033 -5.1875 2.5078125 C-2.8125 0.4453125 -2.8125 0.4453125 0 0 Z " fill="#000000" transform="translate(49.8125,7.5546875)"/>
<path d="M0 0 C1.10658966 0.00607269 1.10658966 0.00607269 2.23553467 0.01226807 C3.01289978 0.00876343 3.79026489 0.00525879 4.59118652 0.00164795 C7.16803849 -0.00717493 9.74461727 -0.00131833 12.32147217 0.00543213 C14.10744276 0.00408564 15.89341299 0.00214524 17.67938232 -0.00036621 C21.42534876 -0.00331823 25.17121992 0.00098264 28.91717529 0.01031494 C33.7261005 0.02170953 38.53480248 0.01515047 43.34371948 0.00317001 C47.03250825 -0.00404651 50.72124383 -0.00176162 54.41003418 0.0034256 C56.18351264 0.00476267 57.95699587 0.00311237 59.73046875 -0.00153351 C62.20624642 -0.00659536 64.68165927 0.0011065 67.15740967 0.01226807 C67.89513611 0.0082196 68.63286255 0.00417114 69.39294434 0 C74.46794339 0.04252835 74.46794339 0.04252835 76.69647217 2.27105713 C76.94647217 4.77105713 76.94647217 4.77105713 76.69647217 7.27105713 C74.21577686 9.75175243 72.77856258 9.51374287 69.39294434 9.54211426 C68.6552179 9.5380658 67.91749146 9.53401733 67.15740967 9.52984619 C66.38004456 9.53335083 65.60267944 9.53685547 64.80175781 9.54046631 C62.22490585 9.54928919 59.64832707 9.54343258 57.07147217 9.53668213 C55.28550158 9.53802862 53.49953134 9.53996902 51.71356201 9.54248047 C47.96759558 9.54543248 44.22172442 9.54113162 40.47576904 9.53179932 C35.66684384 9.52040472 30.85814186 9.52696378 26.04922485 9.53894424 C22.36043608 9.54616077 18.6717005 9.54387588 14.98291016 9.53868866 C13.2094317 9.53735159 11.43594846 9.53900189 9.66247559 9.54364777 C7.18669791 9.54870962 4.71128507 9.54100776 2.23553467 9.52984619 C1.49780823 9.53389465 0.76008179 9.53794312 0 9.54211426 C-5.07499905 9.49958591 -5.07499905 9.49958591 -7.30352783 7.27105713 C-7.55352783 4.77105713 -7.55352783 4.77105713 -7.30352783 2.27105713 C-4.82283253 -0.20963817 -3.38561825 0.02837139 0 0 Z " fill="#000000" transform="translate(15.30352783203125,82.72894287109375)"/>
</svg>
