<?xml version="1.0" encoding="UTF-8"?>
<svg version="1.1" xmlns="http://www.w3.org/2000/svg" width="100" height="100">
<path d="M0 0 C2.1318753 2.02788138 3.60086602 3.79625573 5.25 6.1875 C6.013125 7.26 6.77625 8.3325 7.5625 9.4375 C8.5525 9.4375 9.5425 9.4375 10.5625 9.4375 C10.541875 8.303125 10.52125 7.16875 10.5 6 C10.5625 2.4375 10.5625 2.4375 11.5625 1.4375 C17.55020283 0.82650991 21.70466742 2.0615517 26.5625 5.4375 C28.85248137 7.57676072 30.9218336 9.75898781 32.5625 12.4375 C32.5625 13.4275 32.5625 14.4175 32.5625 15.4375 C33.47 15.664375 34.3775 15.89125 35.3125 16.125 C39.6006147 17.85673863 41.52239786 20.35729573 43.5625 24.4375 C44.08363171 29.66590334 44.20523534 34.07786754 41.9375 38.875 C36.06568733 45.21037683 36.06568733 45.21037683 31.5390625 45.62109375 C30.84554687 45.64300781 30.15203125 45.66492187 29.4375 45.6875 C25.68377185 46.00864824 25.68377185 46.00864824 24.26953125 47.8828125 C20.32931143 55.34054656 18.3447024 64.08423822 17.96875 72.46484375 C17.41853054 75.13658246 16.42354325 76.44857359 14.5625 78.4375 C12.25 78.95507812 12.25 78.95507812 9.5625 78.96875 C8.593125 78.97390625 7.62375 78.9790625 6.625 78.984375 C5.614375 78.96890625 4.60375 78.9534375 3.5625 78.9375 C2.551875 78.95296875 1.54125 78.9684375 0.5 78.984375 C-0.469375 78.97921875 -1.43875 78.9740625 -2.4375 78.96875 C-3.7678125 78.96198242 -3.7678125 78.96198242 -5.125 78.95507812 C-7.4375 78.4375 -7.4375 78.4375 -9.19946289 76.63696289 C-11.02190885 73.39925521 -11.36586927 69.99942162 -11.875 66.375 C-13.18772367 55.86816962 -13.18772367 55.86816962 -17.4375 46.4375 C-19.96847977 45.41979834 -22.18337778 45.1311997 -24.89453125 44.87890625 C-29.07179374 44.15382075 -31.75974752 41.61733107 -34.4375 38.4375 C-37.53395113 33.57461701 -37.04026438 27.98888557 -36.4375 22.4375 C-34.66971226 18.77097728 -33.20754587 16.99578325 -29.9375 14.625 C-27.32671826 12.34056598 -26.70651316 11.07421397 -25.4375 7.9375 C-23.80705523 3.9240975 -22.21545819 1.76239735 -18.4375 -0.5625 C-12.45726571 -2.55591143 -5.74275324 -2.61034238 0 0 Z M7.5625 47.4375 C7.2325 52.7175 6.9025 57.9975 6.5625 63.4375 C4.9125 63.7675 3.2625 64.0975 1.5625 64.4375 C-0.43366554 62.44133446 0.15266573 58.62048037 0 55.875 C-0.04318359 55.16408203 -0.08636719 54.45316406 -0.13085938 53.72070312 C-0.23721777 51.95988088 -0.33788846 50.1987168 -0.4375 48.4375 C-2.7475 48.4375 -5.0575 48.4375 -7.4375 48.4375 C-6.79481979 51.70896109 -6.14781325 54.97955181 -5.5 58.25 C-5.31759766 59.17876953 -5.13519531 60.10753906 -4.94726562 61.06445312 C-4.68139648 62.4034668 -4.68139648 62.4034668 -4.41015625 63.76953125 C-4.24781494 64.59171143 -4.08547363 65.4138916 -3.91821289 66.26098633 C-3.44131086 68.59971265 -3.44131086 68.59971265 -2.4375 71.4375 C1.5225 71.4375 5.4825 71.4375 9.5625 71.4375 C10.20899305 68.54181253 10.85471732 65.64595721 11.5 62.75 C11.68240234 61.93337891 11.86480469 61.11675781 12.05273438 60.27539062 C12.92977628 56.33667517 13.79590455 52.39958805 14.5625 48.4375 C12.2525 48.1075 9.9425 47.7775 7.5625 47.4375 Z " fill="#000000" transform="translate(46.4375,11.5625)"/>
</svg>
